<svg width="64" height="76" viewBox="0 0 64 76" fill="none" xmlns="http://www.w3.org/2000/svg">
<path fill-rule="evenodd" clip-rule="evenodd" d="M22 22C20.8954 22 20 22.8954 20 24V42C20 43.1046 20.8954 44 22 44H42C43.1046 44 44 43.1046 44 42V24C44 22.8954 43.1046 22 42 22H22ZM18 24C18 21.7909 19.7909 20 22 20H42C44.2091 20 46 21.7909 46 24V42C46 44.2091 44.2091 46 42 46H22C19.7909 46 18 44.2091 18 42V24Z" fill="#718096"/>
<path d="M34.5 32C35.3284 32 36 31.3284 36 30.5C36 29.6716 35.3284 29 34.5 29C33.6716 29 33 29.6716 33 30.5C33 31.3284 33.6716 32 34.5 32Z" fill="#718096"/>
<path d="M39.5 32C40.3284 32 41 31.3284 41 30.5C41 29.6716 40.3284 29 39.5 29C38.6716 29 38 29.6716 38 30.5C38 31.3284 38.6716 32 39.5 32Z" fill="#718096"/>
<path d="M34.5 37C35.3284 37 36 36.3284 36 35.5C36 34.6716 35.3284 34 34.5 34C33.6716 34 33 34.6716 33 35.5C33 36.3284 33.6716 37 34.5 37Z" fill="#718096"/>
<path d="M39.5 37C40.3284 37 41 36.3284 41 35.5C41 34.6716 40.3284 34 39.5 34C38.6716 34 38 34.6716 38 35.5C38 36.3284 38.6716 37 39.5 37Z" fill="#718096"/>
<path d="M24.5 37C25.3284 37 26 36.3284 26 35.5C26 34.6716 25.3284 34 24.5 34C23.6716 34 23 34.6716 23 35.5C23 36.3284 23.6716 37 24.5 37Z" fill="#718096"/>
<path d="M29.5 37C30.3284 37 31 36.3284 31 35.5C31 34.6716 30.3284 34 29.5 34C28.6716 34 28 34.6716 28 35.5C28 36.3284 28.6716 37 29.5 37Z" fill="#718096"/>
<path d="M24.5 42C25.3284 42 26 41.3284 26 40.5C26 39.6716 25.3284 39 24.5 39C23.6716 39 23 39.6716 23 40.5C23 41.3284 23.6716 42 24.5 42Z" fill="#718096"/>
<path d="M29.5 42C30.3284 42 31 41.3284 31 40.5C31 39.6716 30.3284 39 29.5 39C28.6716 39 28 39.6716 28 40.5C28 41.3284 28.6716 42 29.5 42Z" fill="#718096"/>
<path d="M34.5 42C35.3284 42 36 41.3284 36 40.5C36 39.6716 35.3284 39 34.5 39C33.6716 39 33 39.6716 33 40.5C33 41.3284 33.6716 42 34.5 42Z" fill="#718096"/>
<path fill-rule="evenodd" clip-rule="evenodd" d="M24 18C24.5523 18 25 18.4477 25 19V21C25 21.5523 24.5523 22 24 22C23.4477 22 23 21.5523 23 21V19C23 18.4477 23.4477 18 24 18ZM40 18C40.5523 18 41 18.4477 41 19V21C41 21.5523 40.5523 22 40 22C39.4477 22 39 21.5523 39 21V19C39 18.4477 39.4477 18 40 18Z" fill="#718096"/>
<path fill-rule="evenodd" clip-rule="evenodd" d="M19 25H45V27H19V25Z" fill="#718096"/>
<path d="M17.2616 59.996H19.0536C19.0536 61.0693 18.881 62.026 18.5356 62.866C18.1996 63.706 17.6723 64.4387 16.9536 65.064C16.235 65.68 15.297 66.198 14.1396 66.618L13.3416 65.316C14.303 64.98 15.0683 64.5833 15.6376 64.126C16.2163 63.6687 16.6316 63.1553 16.8836 62.586C17.1356 62.0073 17.2616 61.3633 17.2616 60.654V59.996ZM13.9576 59.996H17.8216V61.452H13.9576V59.996ZM17.3176 62.194V63.44L13.6496 63.832L13.4256 62.39L17.3176 62.194ZM22.6236 59.268H24.4016V65.932H22.6236V59.268ZM21.0556 61.956H23.1136V63.426H21.0556V61.956ZM19.7956 59.506H21.5316V65.848H19.7956V59.506ZM15.5816 66.422H24.4016V69.88H17.4576V71.476H15.6096V68.564H22.5676V67.836H15.5816V66.422ZM15.6096 70.692H24.8216V72.106H15.6096V70.692ZM35.0385 59.282H36.9005V68.83H35.0385V59.282ZM28.2205 70.524H37.2225V72.022H28.2205V70.524ZM28.2205 68.046H30.0825V71.294H28.2205V68.046ZM26.8065 65.694H27.9265C28.8319 65.694 29.6299 65.6847 30.3205 65.666C31.0112 65.6473 31.6459 65.61 32.2245 65.554C32.8125 65.498 33.4005 65.414 33.9885 65.302L34.1705 66.772C33.5732 66.884 32.9712 66.9727 32.3645 67.038C31.7579 67.094 31.0999 67.136 30.3905 67.164C29.6812 67.1827 28.8599 67.192 27.9265 67.192H26.8065V65.694ZM26.7785 60.122H32.7565V64.28H28.6265V66.114H26.8065V62.894H30.9085V61.606H26.7785V60.122ZM39.5295 67.612H40.5795C41.3448 67.612 42.0308 67.6027 42.6375 67.584C43.2535 67.5653 43.8368 67.5327 44.3875 67.486C44.9381 67.43 45.4935 67.3507 46.0535 67.248L46.2355 68.76C45.6475 68.8627 45.0688 68.942 44.4995 68.998C43.9395 69.054 43.3421 69.0913 42.7075 69.11C42.0821 69.1287 41.3728 69.138 40.5795 69.138H39.5295V67.612ZM39.5295 60.416H45.3955V61.9H41.3915V68.2H39.5295V60.416ZM47.9295 59.268H49.7915V72.274H47.9295V59.268ZM44.7655 63.748H48.7275V65.26H44.7655V63.748Z" fill="#718096"/>
</svg>
