<svg width="64" height="76" viewBox="0 0 64 76" fill="none" xmlns="http://www.w3.org/2000/svg">
<path d="M32 30.875C30.5855 30.875 29.229 30.3153 28.2288 29.319C27.2286 28.3227 26.6667 26.9715 26.6667 25.5625C26.6667 24.1535 27.2286 22.8023 28.2288 21.806C29.229 20.8097 30.5855 20.25 32 20.25C33.4145 20.25 34.771 20.8097 35.7712 21.806C36.7714 22.8023 37.3333 24.1535 37.3333 25.5625C37.3333 26.9715 36.7714 28.3227 35.7712 29.319C34.771 30.3153 33.4145 30.875 32 30.875ZM32 22.375C30.2293 22.375 28.8 23.7987 28.8 25.5625C28.8 27.3263 30.2293 28.75 32 28.75C33.7707 28.75 35.2 27.3263 35.2 25.5625C35.2 23.7987 33.7707 22.375 32 22.375Z" fill="#718096"/>
<path d="M44.8 39.375C44.2027 39.375 43.7333 38.9075 43.7333 38.3125C43.7333 37.7175 44.2027 37.25 44.8 37.25C45.3973 37.25 45.8667 36.7825 45.8667 36.1875C45.8667 34.7785 45.3048 33.4273 44.3046 32.431C43.3044 31.4347 41.9478 30.875 40.5333 30.875H38.4C37.8027 30.875 37.3333 30.4075 37.3333 29.8125C37.3333 29.2175 37.8027 28.75 38.4 28.75C40.1707 28.75 41.6 27.3263 41.6 25.5625C41.6 23.7987 40.1707 22.375 38.4 22.375C37.8027 22.375 37.3333 21.9075 37.3333 21.3125C37.3333 20.7175 37.8027 20.25 38.4 20.25C39.8145 20.25 41.171 20.8097 42.1712 21.806C43.1714 22.8023 43.7333 24.1535 43.7333 25.5625C43.7333 26.88 43.264 28.07 42.4533 29.005C45.632 29.855 48 32.745 48 36.1875C48 37.9513 46.5707 39.375 44.8 39.375ZM19.2 39.375C17.4293 39.375 16 37.9513 16 36.1875C16 32.745 18.3467 29.855 21.5467 29.005C20.7573 28.07 20.2667 26.88 20.2667 25.5625C20.2667 24.1535 20.8286 22.8023 21.8288 21.806C22.829 20.8097 24.1855 20.25 25.6 20.25C26.1973 20.25 26.6667 20.7175 26.6667 21.3125C26.6667 21.9075 26.1973 22.375 25.6 22.375C23.8293 22.375 22.4 23.7987 22.4 25.5625C22.4 27.3263 23.8293 28.75 25.6 28.75C26.1973 28.75 26.6667 29.2175 26.6667 29.8125C26.6667 30.4075 26.1973 30.875 25.6 30.875H23.4667C22.0522 30.875 20.6956 31.4347 19.6954 32.431C18.6952 33.4273 18.1333 34.7785 18.1333 36.1875C18.1333 36.7825 18.6027 37.25 19.2 37.25C19.7973 37.25 20.2667 37.7175 20.2667 38.3125C20.2667 38.9075 19.7973 39.375 19.2 39.375ZM38.4 45.75H25.6C23.8293 45.75 22.4 44.3263 22.4 42.5625V40.4375C22.4 36.3363 25.7493 33 29.8667 33H34.1333C38.2507 33 41.6 36.3363 41.6 40.4375V42.5625C41.6 44.3263 40.1707 45.75 38.4 45.75ZM29.8667 35.125C28.4522 35.125 27.0956 35.6847 26.0954 36.681C25.0952 37.6773 24.5333 39.0285 24.5333 40.4375V42.5625C24.5333 43.1575 25.0027 43.625 25.6 43.625H38.4C38.9973 43.625 39.4667 43.1575 39.4667 42.5625V40.4375C39.4667 39.0285 38.9048 37.6773 37.9046 36.681C36.9044 35.6847 35.5478 35.125 34.1333 35.125H29.8667Z" fill="#718096"/>
<path d="M13.3696 65.372H25.0876V66.842H13.3696V65.372ZM18.2976 63.426H20.1596V65.946H18.2976V63.426ZM14.7836 62.838H23.7576V64.294H14.7836V62.838ZM14.7836 59.828H23.6876V61.298H16.6316V63.762H14.7836V59.828ZM19.1796 67.486C20.5796 67.486 21.681 67.696 22.4836 68.116C23.2863 68.5267 23.6876 69.1147 23.6876 69.88C23.6876 70.636 23.2863 71.2193 22.4836 71.63C21.681 72.05 20.5796 72.26 19.1796 72.26C17.7796 72.26 16.6783 72.05 15.8756 71.63C15.0823 71.2193 14.6856 70.636 14.6856 69.88C14.6856 69.1147 15.0823 68.5267 15.8756 68.116C16.6783 67.696 17.7796 67.486 19.1796 67.486ZM19.1796 68.9C18.601 68.9 18.1156 68.9373 17.7236 69.012C17.341 69.0773 17.0516 69.1847 16.8556 69.334C16.6596 69.474 16.5616 69.6513 16.5616 69.866C16.5616 70.09 16.6596 70.2767 16.8556 70.426C17.0516 70.566 17.341 70.6733 17.7236 70.748C18.1156 70.8133 18.601 70.846 19.1796 70.846C19.7583 70.846 20.239 70.8133 20.6216 70.748C21.0136 70.6733 21.3076 70.566 21.5036 70.426C21.6996 70.2767 21.7976 70.09 21.7976 69.866C21.7976 69.6513 21.6996 69.474 21.5036 69.334C21.3076 69.1847 21.0136 69.0773 20.6216 69.012C20.239 68.9373 19.7583 68.9 19.1796 68.9ZM29.6065 60.164C30.2692 60.164 30.8525 60.3553 31.3565 60.738C31.8699 61.1113 32.2712 61.648 32.5605 62.348C32.8592 63.0387 33.0085 63.8553 33.0085 64.798C33.0085 65.75 32.8592 66.576 32.5605 67.276C32.2712 67.9667 31.8699 68.5033 31.3565 68.886C30.8525 69.2593 30.2692 69.446 29.6065 69.446C28.9439 69.446 28.3559 69.2593 27.8425 68.886C27.3292 68.5033 26.9232 67.9667 26.6245 67.276C26.3352 66.576 26.1905 65.75 26.1905 64.798C26.1905 63.8553 26.3352 63.0387 26.6245 62.348C26.9232 61.648 27.3292 61.1113 27.8425 60.738C28.3559 60.3553 28.9439 60.164 29.6065 60.164ZM29.6065 61.858C29.2892 61.858 29.0045 61.97 28.7525 62.194C28.5099 62.418 28.3185 62.7493 28.1785 63.188C28.0479 63.6173 27.9825 64.154 27.9825 64.798C27.9825 65.4327 28.0479 65.974 28.1785 66.422C28.3185 66.8607 28.5099 67.192 28.7525 67.416C29.0045 67.64 29.2892 67.752 29.6065 67.752C29.9239 67.752 30.2039 67.64 30.4465 67.416C30.6892 67.192 30.8759 66.8607 31.0065 66.422C31.1465 65.974 31.2165 65.4327 31.2165 64.798C31.2165 64.154 31.1465 63.6173 31.0065 63.188C30.8759 62.7493 30.6892 62.418 30.4465 62.194C30.2039 61.97 29.9239 61.858 29.6065 61.858ZM34.4085 59.282H36.2845V72.246H34.4085V59.282ZM35.8785 64.168H38.1605V65.694H35.8785V64.168ZM47.8315 59.254H49.7075V72.26H47.8315V59.254ZM39.6135 67.724H40.7615C41.5268 67.724 42.2501 67.7147 42.9315 67.696C43.6128 67.668 44.2801 67.626 44.9335 67.57C45.5868 67.5047 46.2541 67.4113 46.9355 67.29L47.1315 68.788C46.0861 68.9747 45.0548 69.1007 44.0375 69.166C43.0295 69.222 41.9375 69.25 40.7615 69.25H39.6135V67.724ZM39.5855 60.36H45.7035V65.386H41.5035V68.298H39.6135V63.916H43.8135V61.858H39.5855V60.36Z" fill="#718096"/>
</svg>
