<svg width="32" height="32" viewBox="0 0 32 32" fill="none" xmlns="http://www.w3.org/2000/svg">
<path d="M9.66667 22.3333C7.82222 22.3333 6.25022 21.6831 4.95067 20.3827C3.65111 19.0822 3.00089 17.5102 3 15.6667C2.99911 13.8231 3.64933 12.2511 4.95067 10.9507C6.252 9.65022 7.824 9 9.66667 9H13.6667C14.0444 9 14.3613 9.128 14.6173 9.384C14.8733 9.64 15.0009 9.95644 15 10.3333C14.9991 10.7102 14.8711 11.0271 14.616 11.284C14.3609 11.5409 14.0444 11.6684 13.6667 11.6667H9.66667C8.55556 11.6667 7.61111 12.0556 6.83333 12.8333C6.05556 13.6111 5.66667 14.5556 5.66667 15.6667C5.66667 16.7778 6.05556 17.7222 6.83333 18.5C7.61111 19.2778 8.55556 19.6667 9.66667 19.6667H13.6667C14.0444 19.6667 14.3613 19.7947 14.6173 20.0507C14.8733 20.3067 15.0009 20.6231 15 21C14.9991 21.3769 14.8711 21.6938 14.616 21.9507C14.3609 22.2076 14.0444 22.3351 13.6667 22.3333H9.66667ZM12.3333 17C11.9556 17 11.6391 16.872 11.384 16.616C11.1289 16.36 11.0009 16.0436 11 15.6667C10.9991 15.2898 11.1271 14.9733 11.384 14.7173C11.6409 14.4613 11.9573 14.3333 12.3333 14.3333H20.3333C20.7111 14.3333 21.028 14.4613 21.284 14.7173C21.54 14.9733 21.6676 15.2898 21.6667 15.6667C21.6658 16.0436 21.5378 16.3604 21.2827 16.6173C21.0276 16.8742 20.7111 17.0018 20.3333 17H12.3333ZM19 22.3333C18.6222 22.3333 18.3058 22.2053 18.0507 21.9493C17.7956 21.6933 17.6676 21.3769 17.6667 21C17.6658 20.6231 17.7938 20.3067 18.0507 20.0507C18.3076 19.7947 18.624 19.6667 19 19.6667H23C24.1111 19.6667 25.0556 19.2778 25.8333 18.5C26.6111 17.7222 27 16.7778 27 15.6667C27 14.5556 26.6111 13.6111 25.8333 12.8333C25.0556 12.0556 24.1111 11.6667 23 11.6667H19C18.6222 11.6667 18.3058 11.5387 18.0507 11.2827C17.7956 11.0267 17.6676 10.7102 17.6667 10.3333C17.6658 9.95644 17.7938 9.64 18.0507 9.384C18.3076 9.128 18.624 9 19 9H23C24.8444 9 26.4169 9.65022 27.7173 10.9507C29.0178 12.2511 29.6676 13.8231 29.6667 15.6667C29.6658 17.5102 29.0156 19.0827 27.716 20.384C26.4164 21.6853 24.8444 22.3351 23 22.3333H19Z" fill="#718096"/>
</svg>
