<svg width="48" height="48" viewBox="0 0 48 48" fill="none" xmlns="http://www.w3.org/2000/svg">
    <rect width="48" height="48" rx="24" fill="#E2E8F0"/>
    <path d="M17.3333 30.6666C15.4888 30.6666 13.9168 30.0164 12.6173 28.716C11.3177 27.4155 10.6675 25.8435 10.6666 24C10.6657 22.1564 11.316 20.5844 12.6173 19.284C13.9186 17.9835 15.4906 17.3333 17.3333 17.3333H21.3333C21.7111 17.3333 22.028 17.4613 22.284 17.7173C22.54 17.9733 22.6675 18.2898 22.6666 18.6666C22.6657 19.0435 22.5377 19.3604 22.2826 19.6173C22.0275 19.8742 21.7111 20.0018 21.3333 20H17.3333C16.2222 20 15.2777 20.3889 14.5 21.1666C13.7222 21.9444 13.3333 22.8889 13.3333 24C13.3333 25.1111 13.7222 26.0555 14.5 26.8333C15.2777 27.6111 16.2222 28 17.3333 28H21.3333C21.7111 28 22.028 28.128 22.284 28.384C22.54 28.64 22.6675 28.9564 22.6666 29.3333C22.6657 29.7102 22.5377 30.0271 22.2826 30.284C22.0275 30.5409 21.7111 30.6684 21.3333 30.6666H17.3333ZM20 25.3333C19.6222 25.3333 19.3057 25.2053 19.0506 24.9493C18.7955 24.6933 18.6675 24.3769 18.6666 24C18.6657 23.6231 18.7937 23.3066 19.0506 23.0506C19.3075 22.7946 19.624 22.6666 20 22.6666H28C28.3777 22.6666 28.6946 22.7946 28.9506 23.0506C29.2066 23.3066 29.3342 23.6231 29.3333 24C29.3324 24.3769 29.2044 24.6938 28.9493 24.9506C28.6942 25.2075 28.3777 25.3351 28 25.3333H20ZM26.6666 30.6666C26.2888 30.6666 25.9724 30.5386 25.7173 30.2826C25.4622 30.0266 25.3342 29.7102 25.3333 29.3333C25.3324 28.9564 25.4604 28.64 25.7173 28.384C25.9742 28.128 26.2906 28 26.6666 28H30.6666C31.7777 28 32.7222 27.6111 33.5 26.8333C34.2777 26.0555 34.6666 25.1111 34.6666 24C34.6666 22.8889 34.2777 21.9444 33.5 21.1666C32.7222 20.3889 31.7777 20 30.6666 20H26.6666C26.2888 20 25.9724 19.872 25.7173 19.616C25.4622 19.36 25.3342 19.0435 25.3333 18.6666C25.3324 18.2898 25.4604 17.9733 25.7173 17.7173C25.9742 17.4613 26.2906 17.3333 26.6666 17.3333H30.6666C32.5111 17.3333 34.0835 17.9835 35.384 19.284C36.6844 20.5844 37.3342 22.1564 37.3333 24C37.3324 25.8435 36.6822 27.416 35.3826 28.7173C34.0831 30.0186 32.5111 30.6684 30.6666 30.6666H26.6666Z" fill="#F97561"/>
</svg>
