<svg width="20" height="20" viewBox="0 0 20 20" fill="none" xmlns="http://www.w3.org/2000/svg">
<path fill-rule="evenodd" clip-rule="evenodd" d="M8.49414 7.96344L9.99997 5.55427L11.5058 7.96344C11.5573 8.04591 11.6253 8.11688 11.7054 8.17195C11.7855 8.22702 11.8761 8.265 11.9716 8.28353C12.067 8.30205 12.1653 8.30073 12.2602 8.27964C12.3551 8.25855 12.4447 8.21815 12.5233 8.16094L15.7566 5.80927L14.515 12.3309C14.5059 12.3785 14.4805 12.4213 14.4433 12.4522C14.406 12.4831 14.3592 12.5 14.3108 12.5001H5.68997C5.64145 12.5002 5.59442 12.4833 5.55699 12.4525C5.51957 12.4216 5.49409 12.3786 5.48497 12.3309L4.24331 5.80844L7.47664 8.16011C7.55524 8.21717 7.64473 8.25747 7.73956 8.27848C7.8344 8.29949 7.93254 8.30078 8.02788 8.28226C8.12323 8.26373 8.21375 8.2258 8.29382 8.17081C8.37389 8.11582 8.44179 8.04495 8.49331 7.96261M10.6 4.15594C10.5363 4.05399 10.4478 3.96991 10.3427 3.91163C10.2375 3.85334 10.1193 3.82275 9.99914 3.82275C9.87895 3.82275 9.76073 3.85334 9.65562 3.91163C9.55051 3.96991 9.46196 4.05399 9.3983 4.15594L7.74164 6.80844L3.87164 3.99344C3.35247 3.61594 2.63831 4.06844 2.75914 4.69844L4.25664 12.5651C4.32027 12.8986 4.49825 13.1994 4.7599 13.4157C5.02155 13.632 5.35048 13.7503 5.68997 13.7501H14.3108C14.6503 13.7501 14.9791 13.6316 15.2406 13.4151C15.5021 13.1987 15.6799 12.8978 15.7433 12.5643L17.2408 4.69844C17.3616 4.06844 16.6483 3.61511 16.1291 3.99344L12.2583 6.80844L10.6 4.15594ZM4.99997 15.0001C4.83421 15.0001 4.67524 15.066 4.55803 15.1832C4.44082 15.3004 4.37497 15.4593 4.37497 15.6251C4.37497 15.7909 4.44082 15.9498 4.55803 16.067C4.67524 16.1843 4.83421 16.2501 4.99997 16.2501H15C15.1657 16.2501 15.3247 16.1843 15.4419 16.067C15.5591 15.9498 15.625 15.7909 15.625 15.6251C15.625 15.4593 15.5591 15.3004 15.4419 15.1832C15.3247 15.066 15.1657 15.0001 15 15.0001H4.99997Z" fill="#F97561"/>
</svg>
