<svg width="24" height="24" viewBox="0 0 24 24" fill="none" xmlns="http://www.w3.org/2000/svg">
<rect x="1" y="1" width="22" height="22" rx="11" fill="#718096"/>
<rect x="1" y="1" width="22" height="22" rx="11" stroke="#E2E8F0" stroke-width="2"/>
<path d="M12.1596 7.76818L12.9779 8.59294C13.0287 8.64447 13.089 8.68538 13.1555 8.71329C13.222 8.74121 13.2933 8.75558 13.3653 8.75558C13.4373 8.75558 13.5086 8.74121 13.5751 8.71329C13.6416 8.68538 13.7019 8.64447 13.7527 8.59294C13.8355 8.50535 13.8873 8.39269 13.9001 8.27241C13.9129 8.15213 13.886 8.03094 13.8236 7.92763H15.8204C15.9651 7.92763 16.1039 7.8697 16.2062 7.76659C16.3085 7.66347 16.366 7.52362 16.366 7.37779C16.366 7.23196 16.3085 7.09211 16.2062 6.98899C16.1039 6.88588 15.9651 6.82795 15.8204 6.82795H13.8236C13.886 6.72464 13.9129 6.60345 13.9001 6.48317C13.8873 6.36289 13.8355 6.25023 13.7527 6.16264C13.7019 6.11111 13.6416 6.0702 13.5751 6.04229C13.5086 6.01437 13.4373 6 13.3653 6C13.2933 6 13.222 6.01437 13.1555 6.04229C13.089 6.0702 13.0287 6.11111 12.9779 6.16264L12.1596 6.9874C12.1099 7.03969 12.071 7.10136 12.045 7.16885C11.9904 7.30272 11.9904 7.45286 12.045 7.58673C12.071 7.65422 12.1099 7.71588 12.1596 7.76818ZM17.9591 9.91805C17.9331 9.85056 17.8942 9.7889 17.8445 9.73661L17.0261 8.91184C16.9754 8.86031 16.9151 8.8194 16.8486 8.79149C16.7821 8.76357 16.7108 8.7492 16.6388 8.7492C16.5668 8.7492 16.4954 8.76357 16.429 8.79149C16.3625 8.8194 16.3021 8.86031 16.2514 8.91184C16.1686 8.99943 16.1168 9.11209 16.104 9.23237C16.0911 9.35265 16.118 9.47384 16.1805 9.57715H14.1837C14.039 9.57715 13.9002 9.63508 13.7979 9.7382C13.6956 9.84131 13.6381 9.98117 13.6381 10.127C13.6381 10.2728 13.6956 10.4127 13.7979 10.5158C13.9002 10.6189 14.039 10.6768 14.1837 10.6768H16.1805C16.118 10.7801 16.0911 10.9013 16.104 11.0216C16.1168 11.1419 16.1686 11.2546 16.2514 11.3421C16.3021 11.3937 16.3625 11.4346 16.429 11.4625C16.4954 11.4904 16.5668 11.5048 16.6388 11.5048C16.7108 11.5048 16.7821 11.4904 16.8486 11.4625C16.9151 11.4346 16.9754 11.3937 17.0261 11.3421L17.8445 10.5174C17.8942 10.4651 17.9331 10.4034 17.9591 10.3359C18.0136 10.2021 18.0136 10.0519 17.9591 9.91805ZM11.4558 10.4019C11.0242 10.4019 10.6022 10.5309 10.2434 10.7726C9.88447 11.0142 9.60476 11.3577 9.43959 11.7596C9.27441 12.1615 9.2312 12.6037 9.3154 13.0303C9.39961 13.457 9.60745 13.8489 9.91265 14.1565C10.2179 14.464 10.6067 14.6735 11.03 14.7584C11.4534 14.8432 11.8922 14.7997 12.2909 14.6332C12.6897 14.4668 13.0305 14.1849 13.2703 13.8232C13.5101 13.4615 13.6381 13.0363 13.6381 12.6013C13.6381 12.018 13.4082 11.4586 12.9989 11.0461C12.5896 10.6336 12.0346 10.4019 11.4558 10.4019ZM11.4558 13.701C11.24 13.701 11.029 13.6365 10.8496 13.5156C10.6701 13.3948 10.5303 13.223 10.4477 13.0221C10.3651 12.8212 10.3435 12.6001 10.3856 12.3867C10.4277 12.1734 10.5316 11.9775 10.6842 11.8237C10.8368 11.6699 11.0312 11.5652 11.2429 11.5227C11.4546 11.4803 11.674 11.5021 11.8733 11.5853C12.0727 11.6685 12.2431 11.8095 12.363 11.9903C12.4829 12.1712 12.5469 12.3838 12.5469 12.6013C12.5469 12.8929 12.432 13.1726 12.2273 13.3789C12.0227 13.5851 11.7452 13.701 11.4558 13.701ZM16.366 12.0514C16.2213 12.0514 16.0825 12.1094 15.9802 12.2125C15.8779 12.3156 15.8204 12.4554 15.8204 12.6013V15.3505C15.8204 15.4963 15.7629 15.6362 15.6606 15.7393C15.5583 15.8424 15.4195 15.9003 15.2748 15.9003H7.63673C7.49204 15.9003 7.35327 15.8424 7.25095 15.7393C7.14864 15.6362 7.09116 15.4963 7.09116 15.3505V10.9518C7.09116 10.8059 7.14864 10.6661 7.25095 10.563C7.35327 10.4598 7.49204 10.4019 7.63673 10.4019H8.72789C8.84755 10.4078 8.9658 10.3739 9.0644 10.3053C9.16301 10.2367 9.23647 10.1374 9.27347 10.0225L9.56808 9.13178C9.60219 9.02588 9.66739 8.9329 9.75507 8.86515C9.84275 8.79741 9.94877 8.75809 10.0591 8.75239H10.9102C11.0549 8.75239 11.1937 8.69446 11.296 8.59135C11.3983 8.48823 11.4558 8.34838 11.4558 8.20255C11.4558 8.05672 11.3983 7.91687 11.296 7.81375C11.1937 7.71064 11.0549 7.65271 10.9102 7.65271H10.0591C9.71463 7.65259 9.3789 7.762 9.09972 7.96537C8.82053 8.16874 8.61214 8.4557 8.5042 8.78538L8.33507 9.30223H7.63673C7.20265 9.30223 6.78634 9.47602 6.47939 9.78537C6.17244 10.0947 6 10.5143 6 10.9518V15.3505C6 15.788 6.17244 16.2075 6.47939 16.5169C6.78634 16.8262 7.20265 17 7.63673 17H15.2748C15.7089 17 16.1252 16.8262 16.4322 16.5169C16.7391 16.2075 16.9116 15.788 16.9116 15.3505V12.6013C16.9116 12.4554 16.8541 12.3156 16.7518 12.2125C16.6495 12.1094 16.5107 12.0514 16.366 12.0514Z" fill="#EDF2F7"/>
</svg>
