<svg width="64" height="76" viewBox="0 0 64 76" fill="none" xmlns="http://www.w3.org/2000/svg">
<mask id="path-1-inside-1_293_90" fill="white">
<path d="M0 0H64V76H0V0Z"/>
</mask>
<path d="M0 3H64V-3H0V3Z" fill="#FF5C33" mask="url(#path-1-inside-1_293_90)"/>
<path fill-rule="evenodd" clip-rule="evenodd" d="M17.4667 32C17.4667 23.9733 23.9733 17.4667 32 17.4667C40.0267 17.4667 46.5333 23.9733 46.5333 32C46.5333 40.0267 40.0267 46.5333 32 46.5333C23.9733 46.5333 17.4667 40.0267 17.4667 32ZM32 19.8667C25.2987 19.8667 19.8667 25.2987 19.8667 32C19.8667 38.7013 25.2987 44.1333 32 44.1333C38.7013 44.1333 44.1333 38.7013 44.1333 32C44.1333 25.2987 38.7013 19.8667 32 19.8667Z" fill="#FF5C33"/>
<path fill-rule="evenodd" clip-rule="evenodd" d="M28.7945 24.7945C29.6446 23.9443 30.7977 23.4667 32 23.4667C33.2023 23.4667 34.3554 23.9443 35.2056 24.7945C36.0557 25.6446 36.5333 26.7977 36.5333 28C36.5333 29.2023 36.0557 30.3554 35.2056 31.2056C34.3554 32.0557 33.2023 32.5333 32 32.5333C30.7977 32.5333 29.6446 32.0557 28.7945 31.2056C27.9443 30.3554 27.4667 29.2023 27.4667 28C27.4667 26.7977 27.9443 25.6446 28.7945 24.7945ZM32 25.8667C31.4342 25.8667 30.8916 26.0914 30.4915 26.4915C30.0914 26.8916 29.8667 27.4342 29.8667 28C29.8667 28.5658 30.0914 29.1084 30.4915 29.5085C30.8916 29.9086 31.4342 30.1333 32 30.1333C32.5658 30.1333 33.1084 29.9086 33.5085 29.5085C33.9086 29.1084 34.1333 28.5658 34.1333 28C34.1333 27.4342 33.9086 26.8916 33.5085 26.4915C33.1084 26.0914 32.5658 25.8667 32 25.8667Z" fill="#FF5C33"/>
<path fill-rule="evenodd" clip-rule="evenodd" d="M29.3333 36.5333C26.4377 36.5333 24.0667 38.7861 23.8787 41.6337C23.8351 42.295 23.2636 42.7957 22.6023 42.752C21.941 42.7084 21.4403 42.1369 21.4839 41.4756C21.7546 37.3752 25.165 34.1333 29.3333 34.1333H34.6667C38.8294 34.1333 42.2367 37.3665 42.5152 41.4591C42.5602 42.1204 42.0607 42.6929 41.3995 42.7379C40.7383 42.7829 40.1658 42.2833 40.1208 41.6221C39.9273 38.7801 37.5586 36.5333 34.6667 36.5333H29.3333Z" fill="#FF5C33"/>
<path d="M22.4387 71V61.1357H24.4758L27.4973 68.6689H27.5451L30.5666 61.1357H32.6037V71H31.0178V63.9863H30.9631L28.1193 71H26.923L24.0793 63.9863H24.0314V71H22.4387ZM37.0223 71V67.1104L33.5633 61.1357H35.491L37.8768 65.4287H37.9246L40.3104 61.1357H42.2381L38.7791 67.1104V71H37.0223Z" fill="#FF5C33"/>
</svg>
