<svg width="20" height="20" viewBox="0 0 20 20" fill="none" xmlns="http://www.w3.org/2000/svg">
<path fill-rule="evenodd" clip-rule="evenodd" d="M14.8974 3.25024C14.6272 3.25024 14.368 3.3576 14.1769 3.54869L4.16773 13.5579C4.0588 13.6667 3.9789 13.8014 3.93571 13.9493L3.40769 15.7589L5.21732 15.2309C5.36536 15.1878 5.50051 15.1079 5.60955 14.9989L15.6179 4.98972C15.809 4.79863 15.9163 4.53943 15.9163 4.26919C15.9163 3.99895 15.809 3.73978 15.6179 3.54869C15.4268 3.3576 15.1676 3.25024 14.8974 3.25024ZM13.1162 2.48803C13.5886 2.01563 14.2293 1.75024 14.8974 1.75024C15.5655 1.75024 16.2062 2.01563 16.6786 2.48803C17.151 2.96042 17.4163 3.60112 17.4163 4.26919C17.4163 4.93724 17.151 5.57794 16.6786 6.05033L6.67025 16.0595C6.38288 16.3469 6.02765 16.5571 5.63748 16.6708L3.24414 17.3692C3.04336 17.4277 2.83045 17.4313 2.62785 17.3794C2.42526 17.3275 2.24034 17.222 2.09244 17.0741C1.94455 16.9263 1.83914 16.7413 1.78723 16.5387C1.73533 16.3361 1.73884 16.1233 1.7974 15.9225L2.49576 13.5291C2.60961 13.1392 2.81993 12.7842 3.10722 12.497L13.1162 2.48803ZM9.2499 16.6667C9.2499 16.2525 9.58569 15.9167 9.9999 15.9167H17.4999C17.9141 15.9167 18.2499 16.2525 18.2499 16.6667C18.2499 17.0809 17.9141 17.4167 17.4999 17.4167H9.9999C9.58569 17.4167 9.2499 17.0809 9.2499 16.6667Z" fill="#A0AEC0"/>
</svg>
