<svg width="25" height="24" viewBox="0 0 25 24" fill="none" xmlns="http://www.w3.org/2000/svg">
<path d="M12.4996 20H20.5M16.3895 5.5486C16.7434 5.19734 17.2234 5 17.7238 5C18.2243 5 18.7043 5.19734 19.0581 5.5486C19.412 5.89986 19.6108 6.37627 19.6108 6.87303C19.6108 7.36979 19.412 7.8462 19.0581 8.19746L8.38199 18.7956C8.17051 19.0055 7.9091 19.159 7.62195 19.242L5.06892 19.9815C4.99243 20.0036 4.91135 20.0049 4.83416 19.9853C4.75697 19.9657 4.68652 19.9258 4.63018 19.8699C4.57384 19.814 4.53368 19.744 4.51391 19.6674C4.49413 19.5908 4.49547 19.5103 4.51778 19.4344L5.26271 16.9002C5.34647 16.6155 5.50116 16.3564 5.71251 16.1467L16.3895 5.5486Z" stroke="#4A5568" stroke-width="1.5" stroke-linecap="round" stroke-linejoin="round"/>
</svg>
