<svg width="48" height="48" viewBox="0 0 48 48" fill="none" xmlns="http://www.w3.org/2000/svg">
<rect width="48" height="48" rx="24" fill="#E2E8F0"/>
<path fill-rule="evenodd" clip-rule="evenodd" d="M20.0168 13.0167C20.4543 12.5791 21.0478 12.3333 21.6667 12.3333H26.3333C26.9522 12.3333 27.5457 12.5791 27.9832 13.0167C28.4208 13.4543 28.6667 14.0478 28.6667 14.6666V17H32.153C32.1612 16.9999 32.1695 16.9999 32.1777 17H33.3333C33.9777 17 34.5 17.5223 34.5 18.1666C34.5 18.811 33.9777 19.3333 33.3333 19.3333H33.2402L32.1663 32.2201C32.1524 33.129 31.7853 33.9977 31.1415 34.6415C30.4852 35.2979 29.5949 35.6666 28.6667 35.6666H19.3333C18.4051 35.6666 17.5148 35.2979 16.8585 34.6415C16.2147 33.9977 15.8476 33.129 15.8337 32.2201L14.7598 19.3333H14.6667C14.0223 19.3333 13.5 18.811 13.5 18.1666C13.5 17.5223 14.0223 17 14.6667 17H15.8223C15.8305 16.9999 15.8388 16.9999 15.847 17H19.3333V14.6666C19.3333 14.0478 19.5792 13.4543 20.0168 13.0167ZM17.1013 19.3333L18.1626 32.0698C18.1653 32.102 18.1667 32.1343 18.1667 32.1666C18.1667 32.4761 18.2896 32.7728 18.5084 32.9916C18.7272 33.2104 19.0239 33.3333 19.3333 33.3333H28.6667C28.9761 33.3333 29.2728 33.2104 29.4916 32.9916C29.7104 32.7728 29.8333 32.4761 29.8333 32.1666C29.8333 32.1343 29.8347 32.102 29.8374 32.0698L30.8987 19.3333H17.1013ZM26.3333 17H21.6667V14.6666H26.3333V17ZM21.6667 21.6666C22.311 21.6666 22.8333 22.189 22.8333 22.8333V29.8333C22.8333 30.4776 22.311 31 21.6667 31C21.0223 31 20.5 30.4776 20.5 29.8333V22.8333C20.5 22.189 21.0223 21.6666 21.6667 21.6666ZM26.3333 21.6666C26.9777 21.6666 27.5 22.189 27.5 22.8333V29.8333C27.5 30.4776 26.9777 31 26.3333 31C25.689 31 25.1667 30.4776 25.1667 29.8333V22.8333C25.1667 22.189 25.689 21.6666 26.3333 21.6666Z" fill="#F97561"/>
</svg>
