<svg width="338" height="58" viewBox="0 0 338 58" fill="none" xmlns="http://www.w3.org/2000/svg">
<g filter="url(#filter0_d_217_584)">
<rect x="1" y="1" width="336" height="56" rx="12" fill="#FEE500"/>
<path fill-rule="evenodd" clip-rule="evenodd" d="M87.1876 18C80.7324 18 75.5 22.0765 75.5 27.1042C75.5 30.231 77.5238 32.9875 80.6055 34.627L79.3089 39.4035C79.1943 39.8256 79.673 40.162 80.0406 39.9174L85.7245 36.1346C86.2041 36.1812 86.6916 36.2085 87.1876 36.2085C93.6423 36.2085 98.875 32.1321 98.875 27.1042C98.875 22.0765 93.6423 18 87.1876 18Z" fill="black"/>
<path d="M118.038 21.518H120.36C120.36 22.814 120.258 24.05 120.054 25.226C119.862 26.402 119.502 27.518 118.974 28.574C118.446 29.63 117.696 30.62 116.724 31.544C115.752 32.468 114.486 33.326 112.926 34.118L111.648 32.282C112.944 31.634 114.006 30.944 114.834 30.212C115.674 29.468 116.322 28.676 116.778 27.836C117.246 26.984 117.57 26.06 117.75 25.064C117.942 24.068 118.038 22.988 118.038 21.824V21.518ZM112.692 21.518H119.442V23.426H112.692V21.518ZM118.092 25.604V27.44L112.116 28.016L111.81 25.982L118.092 25.604ZM122.376 19.898H124.788V36.566H122.376V19.898ZM124.176 26.288H127.11V28.25H124.176V26.288ZM134.497 21.518H136.819C136.819 22.814 136.717 24.05 136.513 25.226C136.321 26.402 135.961 27.518 135.433 28.574C134.905 29.63 134.155 30.62 133.183 31.544C132.211 32.468 130.945 33.326 129.385 34.118L128.107 32.282C129.403 31.634 130.465 30.944 131.293 30.212C132.133 29.468 132.781 28.676 133.237 27.836C133.705 26.984 134.029 26.06 134.209 25.064C134.401 24.068 134.497 22.988 134.497 21.824V21.518ZM129.151 21.518H135.901V23.426H129.151V21.518ZM134.551 25.604V27.44L128.575 28.016L128.269 25.982L134.551 25.604ZM138.835 19.898H141.247V36.566H138.835V19.898ZM140.635 26.288H143.569V28.25H140.635V26.288ZM150.991 29.294H153.367V33.092H150.991V29.294ZM152.179 20.78C153.367 20.78 154.429 20.972 155.365 21.356C156.313 21.728 157.057 22.256 157.597 22.94C158.137 23.624 158.407 24.434 158.407 25.37C158.407 26.294 158.137 27.104 157.597 27.8C157.057 28.496 156.313 29.036 155.365 29.42C154.429 29.792 153.367 29.978 152.179 29.978C151.003 29.978 149.941 29.792 148.993 29.42C148.057 29.036 147.313 28.496 146.761 27.8C146.221 27.104 145.951 26.294 145.951 25.37C145.951 24.434 146.221 23.624 146.761 22.94C147.313 22.256 148.057 21.728 148.993 21.356C149.941 20.972 151.003 20.78 152.179 20.78ZM152.179 22.67C151.423 22.67 150.751 22.778 150.163 22.994C149.587 23.21 149.131 23.516 148.795 23.912C148.471 24.308 148.309 24.794 148.309 25.37C148.309 25.934 148.471 26.42 148.795 26.828C149.131 27.224 149.587 27.53 150.163 27.746C150.751 27.962 151.423 28.07 152.179 28.07C152.947 28.07 153.619 27.962 154.195 27.746C154.783 27.53 155.239 27.224 155.563 26.828C155.887 26.42 156.049 25.934 156.049 25.37C156.049 24.794 155.887 24.308 155.563 23.912C155.239 23.516 154.783 23.21 154.195 22.994C153.619 22.778 152.947 22.67 152.179 22.67ZM144.655 32.714H159.757V34.658H144.655V32.714ZM161.114 32.822H176.216V34.766H161.114V32.822ZM167.45 29.654H169.826V33.596H167.45V29.654ZM162.824 20.996H174.506V26.558H165.218V29.348H162.842V24.686H172.13V22.904H162.824V20.996ZM162.842 28.412H174.884V30.32H162.842V28.412ZM181.041 32.822H196.143V34.766H181.041V32.822ZM187.377 29.654H189.753V33.596H187.377V29.654ZM182.751 20.996H194.433V26.558H185.145V29.348H182.769V24.686H192.057V22.904H182.751V20.996ZM182.769 28.412H194.811V30.32H182.769V28.412ZM199.047 21.446H209.595V23.354H199.047V21.446ZM197.499 32.48H212.583V34.424H197.499V32.48ZM208.335 21.446H210.729V23.426C210.729 24.206 210.717 24.998 210.693 25.802C210.681 26.606 210.633 27.464 210.549 28.376C210.477 29.288 210.333 30.32 210.117 31.472L207.723 31.256C207.939 30.188 208.083 29.204 208.155 28.304C208.239 27.404 208.287 26.558 208.299 25.766C208.323 24.962 208.335 24.182 208.335 23.426V21.446ZM225.406 19.934H227.8V31.904H225.406V19.934ZM216.694 34.388H228.232V36.314H216.694V34.388ZM216.694 30.716H219.088V35.18H216.694V30.716ZM218.728 20.996C219.58 20.996 220.348 21.176 221.032 21.536C221.716 21.896 222.256 22.394 222.652 23.03C223.06 23.666 223.264 24.398 223.264 25.226C223.264 26.03 223.06 26.756 222.652 27.404C222.256 28.04 221.716 28.544 221.032 28.916C220.348 29.276 219.58 29.456 218.728 29.456C217.876 29.456 217.108 29.276 216.424 28.916C215.74 28.544 215.194 28.04 214.786 27.404C214.39 26.756 214.192 26.03 214.192 25.226C214.192 24.398 214.39 23.666 214.786 23.03C215.194 22.394 215.74 21.896 216.424 21.536C217.108 21.176 217.876 20.996 218.728 20.996ZM218.728 23.048C218.32 23.048 217.948 23.138 217.612 23.318C217.276 23.486 217.012 23.732 216.82 24.056C216.628 24.368 216.532 24.758 216.532 25.226C216.532 25.67 216.628 26.054 216.82 26.378C217.012 26.69 217.276 26.936 217.612 27.116C217.948 27.284 218.32 27.368 218.728 27.368C219.136 27.368 219.508 27.284 219.844 27.116C220.18 26.936 220.444 26.69 220.636 26.378C220.828 26.054 220.924 25.67 220.924 25.226C220.924 24.758 220.828 24.368 220.636 24.056C220.444 23.732 220.18 23.486 219.844 23.318C219.508 23.138 219.136 23.048 218.728 23.048ZM241.091 19.934H243.485V36.602H241.091V19.934ZM242.945 26.432H245.879V28.412H242.945V26.432ZM230.327 22.382H240.047V24.29H230.327V22.382ZM235.223 25.244C236.027 25.244 236.747 25.418 237.383 25.766C238.019 26.102 238.517 26.564 238.877 27.152C239.249 27.74 239.435 28.424 239.435 29.204C239.435 29.984 239.249 30.674 238.877 31.274C238.517 31.862 238.019 32.33 237.383 32.678C236.759 33.014 236.039 33.182 235.223 33.182C234.419 33.182 233.693 33.014 233.045 32.678C232.409 32.33 231.905 31.862 231.533 31.274C231.173 30.674 230.993 29.984 230.993 29.204C230.993 28.424 231.173 27.74 231.533 27.152C231.905 26.564 232.409 26.102 233.045 25.766C233.693 25.418 234.419 25.244 235.223 25.244ZM235.223 27.188C234.839 27.188 234.503 27.266 234.215 27.422C233.927 27.578 233.699 27.806 233.531 28.106C233.363 28.406 233.279 28.772 233.279 29.204C233.279 29.624 233.363 29.99 233.531 30.302C233.699 30.602 233.927 30.836 234.215 31.004C234.503 31.16 234.839 31.238 235.223 31.238C235.595 31.238 235.925 31.16 236.213 31.004C236.501 30.836 236.729 30.602 236.897 30.302C237.065 29.99 237.149 29.624 237.149 29.204C237.149 28.772 237.065 28.406 236.897 28.106C236.729 27.806 236.501 27.578 236.213 27.422C235.925 27.266 235.595 27.188 235.223 27.188ZM233.999 20.204H236.411V23.12H233.999V20.204ZM258.359 19.916H260.753V36.584H258.359V19.916ZM253.445 21.644H255.803C255.803 22.916 255.677 24.134 255.425 25.298C255.185 26.45 254.777 27.536 254.201 28.556C253.637 29.576 252.857 30.524 251.861 31.4C250.877 32.264 249.647 33.056 248.171 33.776L246.911 31.886C248.519 31.106 249.797 30.248 250.745 29.312C251.705 28.364 252.395 27.296 252.815 26.108C253.235 24.908 253.445 23.564 253.445 22.076V21.644ZM247.811 21.644H254.561V23.552H247.811V21.644Z" fill="#2D3748"/>
</g>
<defs>
<filter id="filter0_d_217_584" x="0" y="0" width="338" height="58" filterUnits="userSpaceOnUse" color-interpolation-filters="sRGB">
<feFlood flood-opacity="0" result="BackgroundImageFix"/>
<feColorMatrix in="SourceAlpha" type="matrix" values="0 0 0 0 0 0 0 0 0 0 0 0 0 0 0 0 0 0 127 0" result="hardAlpha"/>
<feOffset/>
<feGaussianBlur stdDeviation="0.5"/>
<feComposite in2="hardAlpha" operator="out"/>
<feColorMatrix type="matrix" values="0 0 0 0 0 0 0 0 0 0 0 0 0 0 0 0 0 0 0.25 0"/>
<feBlend mode="normal" in2="BackgroundImageFix" result="effect1_dropShadow_217_584"/>
<feBlend mode="normal" in="SourceGraphic" in2="effect1_dropShadow_217_584" result="shape"/>
</filter>
</defs>
</svg>
