<svg width="105" height="24" viewBox="0 0 105 24" fill="none" xmlns="http://www.w3.org/2000/svg">
<path d="M89.1149 19.5003V4.80029H95.1839C96.7099 4.80029 98.0679 5.09429 99.2579 5.68229C100.462 6.25629 101.407 7.09629 102.093 8.20229C102.779 9.29429 103.122 10.5893 103.122 12.0873C103.122 13.5713 102.779 14.8803 102.093 16.0143C101.407 17.1343 100.469 17.9953 99.2789 18.5973C98.1029 19.1993 96.7799 19.5003 95.3099 19.5003H89.1149ZM95.0159 16.2243C95.8419 16.2243 96.5349 16.0703 97.0949 15.7623C97.6549 15.4403 98.0749 14.9713 98.3549 14.3553C98.6489 13.7393 98.7959 12.9903 98.7959 12.1083C98.7959 11.2963 98.6489 10.5893 98.3549 9.98729C98.0749 9.37129 97.6549 8.89529 97.0949 8.55929C96.5489 8.22329 95.8769 8.05529 95.0789 8.05529H93.2519V16.2243H95.0159Z" fill="#A0AEC0"/>
<path d="M71.1248 19.5003V4.80029H76.8578L82.8008 15.5103L83.9558 14.7753C83.5218 14.0893 83.1648 13.4453 82.8848 12.8433C82.6048 12.2413 82.3878 11.6113 82.2338 10.9533C82.0798 10.2813 82.0028 9.56029 82.0028 8.79029V4.80029H85.9928V19.5003H81.2888L74.2958 6.85829L73.1198 7.55129C73.7078 8.53129 74.1908 9.56029 74.5688 10.6383C74.9468 11.7163 75.1358 12.8713 75.1358 14.1033V19.5003H71.1248Z" fill="#A0AEC0"/>
<path d="M53.4899 19.5003L58.7399 4.80029H64.2419L69.4919 19.5003H65.0189L62.4779 11.4573C62.3099 10.8833 62.2049 10.2323 62.1629 9.50429C62.1209 8.77629 62.1069 7.89429 62.1209 6.85829H60.7559C60.7699 7.86629 60.7489 8.74129 60.6929 9.48329C60.6369 10.2113 60.5109 10.8763 60.3149 11.4783L57.6899 19.5003H53.4899ZM56.9339 16.5393L58.0259 13.4103H64.8299L65.9429 16.5393H56.9339Z" fill="#A0AEC0"/>
<path d="M40.066 19.5003V4.80029H47.584C48.634 4.80029 49.516 4.94729 50.23 5.24129C50.958 5.52129 51.504 5.90629 51.868 6.39629C52.232 6.88629 52.414 7.44629 52.414 8.07629C52.414 9.05629 52.057 9.81229 51.343 10.3443C50.643 10.8763 49.649 11.1563 48.361 11.1843V12.4653C49.313 12.4793 50.125 12.6053 50.797 12.8433C51.483 13.0813 52.008 13.4453 52.372 13.9353C52.75 14.4253 52.939 15.0483 52.939 15.8043C52.939 16.5603 52.722 17.2183 52.288 17.7783C51.868 18.3243 51.245 18.7513 50.419 19.0593C49.607 19.3533 48.641 19.5003 47.521 19.5003H40.066ZM46.786 16.3923C47.192 16.3923 47.542 16.3433 47.836 16.2453C48.13 16.1333 48.361 15.9653 48.529 15.7413C48.711 15.5173 48.802 15.2373 48.802 14.9013C48.802 14.3973 48.62 14.0193 48.256 13.7673C47.892 13.5013 47.402 13.3683 46.786 13.3683H44.098V16.3923H46.786ZM46.765 10.5963C47.115 10.5963 47.423 10.5473 47.689 10.4493C47.955 10.3373 48.158 10.1833 48.298 9.98729C48.452 9.77729 48.529 9.52529 48.529 9.23129C48.529 8.79729 48.375 8.46829 48.067 8.24429C47.759 8.02029 47.325 7.90829 46.765 7.90829H44.098V10.5963H46.765Z" fill="#A0AEC0"/>
<path d="M26.0746 19.5003V4.80029H37.5406V8.03429H30.1276V10.5123H35.8816V13.5153H30.1276V16.2663H37.5406V19.5003H26.0746Z" fill="#A0AEC0"/>
<path d="M5.60093 19.5003L1.79993 4.80029H6.29393L7.11293 8.72729C7.32293 9.74929 7.44893 10.9393 7.49093 12.2973C7.54693 13.6413 7.56093 14.9993 7.53293 16.3713H8.91893C8.90493 15.2093 8.92593 14.1523 8.98193 13.2003C9.05193 12.2343 9.21293 11.0443 9.46493 9.63029L10.6619 4.80029H15.5129L16.7309 9.60929C16.9829 10.8693 17.1369 11.9963 17.1929 12.9903C17.2629 13.9843 17.2979 15.1113 17.2979 16.3713H18.6629C18.6489 14.8173 18.6629 13.4173 18.7049 12.1713C18.7469 10.9113 18.8589 9.79129 19.0409 8.81129L19.9019 4.80029H24.1229L20.4899 19.5003H15.6389L14.2949 14.0193C14.0849 13.0393 13.9519 12.0453 13.8959 11.0373C13.8399 10.0153 13.8189 8.91629 13.8329 7.74029H12.4469C12.4609 8.90229 12.4329 9.99429 12.3629 11.0163C12.3069 12.0243 12.1739 13.0253 11.9639 14.0193L10.5779 19.5003H5.60093Z" fill="#A0AEC0"/>
</svg>
