<svg width="224" height="56" viewBox="0 0 224 56" fill="none" xmlns="http://www.w3.org/2000/svg">
<path d="M148.525 40.5V16H158.64C161.183 16 163.446 16.49 165.43 17.47C167.436 18.4267 169.011 19.8267 170.155 21.67C171.298 23.49 171.87 25.6483 171.87 28.145C171.87 30.6183 171.298 32.8 170.155 34.69C169.011 36.5567 167.448 37.9917 165.465 38.995C163.505 39.9983 161.3 40.5 158.85 40.5H148.525ZM158.36 35.04C159.736 35.04 160.891 34.7833 161.825 34.27C162.758 33.7333 163.458 32.9517 163.925 31.925C164.415 30.8983 164.66 29.65 164.66 28.18C164.66 26.8267 164.415 25.6483 163.925 24.645C163.458 23.6183 162.758 22.825 161.825 22.265C160.915 21.705 159.795 21.425 158.465 21.425H155.42V35.04H158.36Z" fill="#F97561"/>
<path d="M118.541 40.5V16H128.096L138.001 33.85L139.926 32.625C139.203 31.4817 138.608 30.4083 138.141 29.405C137.674 28.4017 137.313 27.3517 137.056 26.255C136.799 25.135 136.671 23.9333 136.671 22.65V16H143.321V40.5H135.481L123.826 19.43L121.866 20.585C122.846 22.2183 123.651 23.9333 124.281 25.73C124.911 27.5267 125.226 29.4517 125.226 31.505V40.5H118.541Z" fill="#F97561"/>
<path d="M89.15 40.5L97.9 16H107.07L115.82 40.5H108.365L104.13 27.095C103.85 26.1383 103.675 25.0533 103.605 23.84C103.535 22.6267 103.512 21.1567 103.535 19.43H101.26C101.283 21.11 101.248 22.5683 101.155 23.805C101.062 25.0183 100.852 26.1267 100.525 27.13L96.15 40.5H89.15ZM94.89 35.565L96.71 30.35H108.05L109.905 35.565H94.89Z" fill="#F97561"/>
<path d="M66.7765 40.5V16H79.3065C81.0565 16 82.5265 16.245 83.7165 16.735C84.9298 17.2017 85.8398 17.8433 86.4465 18.66C87.0532 19.4767 87.3565 20.41 87.3565 21.46C87.3565 23.0933 86.7615 24.3533 85.5715 25.24C84.4048 26.1267 82.7482 26.5933 80.6015 26.64V28.775C82.1882 28.7983 83.5415 29.0083 84.6615 29.405C85.8048 29.8017 86.6798 30.4083 87.2865 31.225C87.9165 32.0417 88.2315 33.08 88.2315 34.34C88.2315 35.6 87.8698 36.6967 87.1465 37.63C86.4465 38.54 85.4082 39.2517 84.0315 39.765C82.6782 40.255 81.0682 40.5 79.2015 40.5H66.7765ZM77.9765 35.32C78.6532 35.32 79.2365 35.2383 79.7265 35.075C80.2165 34.8883 80.6015 34.6083 80.8815 34.235C81.1848 33.8617 81.3365 33.395 81.3365 32.835C81.3365 31.995 81.0332 31.365 80.4265 30.945C79.8198 30.5017 79.0032 30.28 77.9765 30.28H73.4965V35.32H77.9765ZM77.9415 25.66C78.5248 25.66 79.0382 25.5783 79.4815 25.415C79.9248 25.2283 80.2632 24.9717 80.4965 24.645C80.7532 24.295 80.8815 23.875 80.8815 23.385C80.8815 22.6617 80.6248 22.1133 80.1115 21.74C79.5982 21.3667 78.8748 21.18 77.9415 21.18H73.4965V25.66H77.9415Z" fill="#F97561"/>
<path d="M43.4578 40.5V16H62.5678V21.39H50.2128V25.52H59.8028V30.525H50.2128V35.11H62.5678V40.5H43.4578Z" fill="#F97561"/>
<path d="M9.335 40.5L3 16H10.49L11.855 22.545C12.205 24.2483 12.415 26.2317 12.485 28.495C12.5783 30.735 12.6017 32.9983 12.555 35.285H14.865C14.8417 33.3483 14.8767 31.5867 14.97 30C15.0867 28.39 15.355 26.4067 15.775 24.05L17.77 16H25.855L27.885 24.015C28.305 26.115 28.5617 27.9933 28.655 29.65C28.7717 31.3067 28.83 33.185 28.83 35.285H31.105C31.0817 32.695 31.105 30.3617 31.175 28.285C31.245 26.185 31.4317 24.3183 31.735 22.685L33.17 16H40.205L34.15 40.5H26.065L23.825 31.365C23.475 29.7317 23.2533 28.075 23.16 26.395C23.0667 24.6917 23.0317 22.86 23.055 20.9H20.745C20.7683 22.8367 20.7217 24.6567 20.605 26.36C20.5117 28.04 20.29 29.7083 19.94 31.365L17.63 40.5H9.335Z" fill="#F97561"/>
<path d="M217.561 38.538V29.3681H213.603V27.013H217.561V22.7538H220.067V27.013H224V29.3681H220.067V38.538H217.561Z" fill="#A0AEC0"/>
<path d="M202.503 38.538V21H205.009V27.013H207.79C208.792 27.013 209.685 27.2469 210.47 27.7146C211.272 28.1655 211.899 28.7919 212.35 29.5936C212.801 30.3954 213.026 31.3057 213.026 32.3246V38.538H210.521V32.1993C210.521 31.3809 210.262 30.7044 209.744 30.1699C209.226 29.6354 208.566 29.3682 207.765 29.3682H205.009V38.538H202.503Z" fill="#A0AEC0"/>
<path d="M189.601 44.5511V42.0707H194.687C195.239 42.0707 195.74 41.9371 196.191 41.6699C196.642 41.4193 196.992 41.0686 197.243 40.6176C197.493 40.1833 197.619 39.6822 197.619 39.1143V37.7363L198.42 38.5381H194.186C193.101 38.5381 192.107 38.2875 191.205 37.7864C190.32 37.2686 189.618 36.5755 189.1 35.7069C188.599 34.8217 188.349 33.8445 188.349 32.7756C188.349 31.7066 188.599 30.7378 189.1 29.8693C189.618 28.984 190.32 28.2908 191.205 27.7897C192.107 27.272 193.101 27.0131 194.186 27.0131H200.124V39.1644C200.124 40.2 199.89 41.127 199.423 41.9455C198.972 42.7639 198.337 43.3986 197.519 43.8496C196.7 44.3173 195.773 44.5511 194.737 44.5511H189.601ZM194.387 36.183H197.619V29.3682H194.387C193.735 29.3682 193.142 29.5185 192.608 29.8191C192.09 30.1031 191.681 30.504 191.38 31.0218C191.096 31.5395 190.954 32.1241 190.954 32.7756C190.954 33.4103 191.096 33.9865 191.38 34.5043C191.681 35.0221 192.09 35.4313 192.608 35.732C193.142 36.0326 193.735 36.183 194.387 36.183Z" fill="#A0AEC0"/>
<path d="M185.315 25.2592C184.781 25.2592 184.322 25.0672 183.937 24.683C183.57 24.2988 183.386 23.8395 183.386 23.305C183.386 22.7705 183.57 22.3195 183.937 21.9521C184.322 21.5679 184.781 21.3758 185.315 21.3758C185.85 21.3758 186.309 21.5679 186.693 21.9521C187.078 22.3195 187.27 22.7705 187.27 23.305C187.27 23.8395 187.078 24.2988 186.693 24.683C186.309 25.0672 185.85 25.2592 185.315 25.2592ZM184.013 38.5381V36.1579V29.3932V27.0131H186.593V36.1579V38.5381H184.013Z" fill="#A0AEC0"/>
<path d="M179 38.538V35.9574V23.5555V21H181.581V35.9574V38.538H179Z" fill="#A0AEC0"/>
</svg>
