<svg xmlns="http://www.w3.org/2000/svg" width="245" height="56" viewBox="0 0 245 56" fill="none">
  <path d="M207.935 45.5V11.2H222.096C225.656 11.2 228.825 11.886 231.602 13.258C234.411 14.5973 236.616 16.5573 238.217 19.138C239.817 21.686 240.618 24.7076 240.618 28.203C240.618 31.6656 239.817 34.72 238.217 37.366C236.616 39.9793 234.427 41.9883 231.651 43.393C228.907 44.7976 225.82 45.5 222.39 45.5H207.935ZM221.704 37.856C223.631 37.856 225.248 37.4966 226.555 36.778C227.861 36.0266 228.841 34.9323 229.495 33.495C230.181 32.0576 230.524 30.31 230.524 28.252C230.524 26.3573 230.181 24.7076 229.495 23.303C228.841 21.8657 227.861 20.755 226.555 19.971C225.281 19.187 223.713 18.795 221.851 18.795H217.588V37.856H221.704Z" fill="#F97561"/>
  <path d="M165.957 45.5V11.2H179.334L193.201 36.19L195.896 34.475C194.884 32.8743 194.051 31.3717 193.397 29.967C192.744 28.5623 192.238 27.0923 191.878 25.557C191.519 23.989 191.339 22.3066 191.339 20.51V11.2H200.649V45.5H189.673L173.356 16.002L170.612 17.619C171.984 19.9056 173.111 22.3067 173.993 24.822C174.875 27.3373 175.316 30.0323 175.316 32.907V45.5H165.957Z" fill="#F97561"/>
  <path d="M124.81 45.5L137.06 11.2H149.898L162.148 45.5H151.711L145.782 26.733C145.39 25.3936 145.145 23.8746 145.047 22.176C144.949 20.4773 144.916 18.4193 144.949 16.002H141.764C141.797 18.354 141.748 20.3956 141.617 22.127C141.486 23.8256 141.192 25.3773 140.735 26.782L134.61 45.5H124.81ZM132.846 38.591L135.394 31.29H151.27L153.867 38.591H132.846Z" fill="#F97561"/>
  <path d="M93.4871 45.5V11.2H111.029C113.479 11.2 115.537 11.543 117.203 12.229C118.902 12.8823 120.176 13.7806 121.025 14.924C121.874 16.0673 122.299 17.374 122.299 18.844C122.299 21.1306 121.466 22.8946 119.8 24.136C118.167 25.3773 115.847 26.0306 112.842 26.096V29.085C115.063 29.1176 116.958 29.4116 118.526 29.967C120.127 30.5223 121.352 31.3716 122.201 32.515C123.083 33.6583 123.524 35.112 123.524 36.876C123.524 38.64 123.018 40.1753 122.005 41.482C121.025 42.756 119.571 43.7523 117.644 44.471C115.749 45.157 113.495 45.5 110.882 45.5H93.4871ZM109.167 38.248C110.114 38.248 110.931 38.1336 111.617 37.905C112.303 37.6436 112.842 37.2516 113.234 36.729C113.659 36.2063 113.871 35.553 113.871 34.769C113.871 33.593 113.446 32.711 112.597 32.123C111.748 31.5023 110.604 31.192 109.167 31.192H102.895V38.248H109.167ZM109.118 24.724C109.935 24.724 110.653 24.6096 111.274 24.381C111.895 24.1196 112.368 23.7603 112.695 23.303C113.054 22.813 113.234 22.225 113.234 21.539C113.234 20.5263 112.875 19.7586 112.156 19.236C111.437 18.7133 110.425 18.452 109.118 18.452H102.895V24.724H109.118Z" fill="#F97561"/>
  <path d="M60.8408 45.5V11.2H87.5948V18.746H70.2978V24.528H83.7238V31.535H70.2978V37.954H87.5948V45.5H60.8408Z" fill="#F97561"/>
  <path d="M13.0689 45.5L4.19994 11.2H14.6859L16.5969 20.363C17.0869 22.7476 17.3809 25.5243 17.4789 28.693C17.6096 31.829 17.6423 34.9976 17.5769 38.199H20.8109C20.7783 35.4876 20.8273 33.0213 20.9579 30.8C21.1213 28.546 21.4969 25.7693 22.0849 22.47L24.8779 11.2H36.1969L39.0389 22.421C39.6269 25.361 39.9863 27.9906 40.1169 30.31C40.2803 32.6293 40.3619 35.259 40.3619 38.199H43.5469C43.5143 34.573 43.5469 31.3063 43.6449 28.399C43.7429 25.459 44.0043 22.8456 44.4289 20.559L46.4379 11.2H56.2869L47.8099 45.5H36.4909L33.3549 32.711C32.8649 30.4243 32.5546 28.105 32.4239 25.753C32.2933 23.3683 32.2443 20.804 32.2769 18.06H29.0429C29.0756 20.7713 29.0103 23.3193 28.8469 25.704C28.7163 28.056 28.4059 30.3916 27.9159 32.711L24.6819 45.5H13.0689Z" fill="#F97561"/>
</svg>