<svg width="175" height="40" viewBox="0 0 175 40" fill="none" xmlns="http://www.w3.org/2000/svg">
<path d="M148.525 32.5V8H158.64C161.183 8 163.446 8.49 165.43 9.47C167.436 10.4267 169.011 11.8267 170.155 13.67C171.298 15.49 171.87 17.6483 171.87 20.145C171.87 22.6183 171.298 24.8 170.155 26.69C169.011 28.5567 167.448 29.9917 165.465 30.995C163.505 31.9983 161.3 32.5 158.85 32.5H148.525ZM158.36 27.04C159.736 27.04 160.891 26.7833 161.825 26.27C162.758 25.7333 163.458 24.9517 163.925 23.925C164.415 22.8983 164.66 21.65 164.66 20.18C164.66 18.8267 164.415 17.6483 163.925 16.645C163.458 15.6183 162.758 14.825 161.825 14.265C160.915 13.705 159.795 13.425 158.465 13.425H155.42V27.04H158.36Z" fill="#F97561"/>
<path d="M118.541 32.5V8H128.096L138.001 25.85L139.926 24.625C139.203 23.4817 138.608 22.4083 138.141 21.405C137.674 20.4017 137.313 19.3517 137.056 18.255C136.799 17.135 136.671 15.9333 136.671 14.65V8H143.321V32.5H135.481L123.826 11.43L121.866 12.585C122.846 14.2183 123.651 15.9333 124.281 17.73C124.911 19.5267 125.226 21.4517 125.226 23.505V32.5H118.541Z" fill="#F97561"/>
<path d="M89.15 32.5L97.9 8H107.07L115.82 32.5H108.365L104.13 19.095C103.85 18.1383 103.675 17.0533 103.605 15.84C103.535 14.6267 103.512 13.1567 103.535 11.43H101.26C101.283 13.11 101.248 14.5683 101.155 15.805C101.062 17.0183 100.852 18.1267 100.525 19.13L96.15 32.5H89.15ZM94.89 27.565L96.71 22.35H108.05L109.905 27.565H94.89Z" fill="#F97561"/>
<path d="M66.7765 32.5V8H79.3065C81.0565 8 82.5265 8.245 83.7165 8.735C84.9298 9.20167 85.8398 9.84333 86.4465 10.66C87.0532 11.4767 87.3565 12.41 87.3565 13.46C87.3565 15.0933 86.7615 16.3533 85.5715 17.24C84.4048 18.1267 82.7482 18.5933 80.6015 18.64V20.775C82.1882 20.7983 83.5415 21.0083 84.6615 21.405C85.8048 21.8017 86.6798 22.4083 87.2865 23.225C87.9165 24.0417 88.2315 25.08 88.2315 26.34C88.2315 27.6 87.8698 28.6967 87.1465 29.63C86.4465 30.54 85.4082 31.2517 84.0315 31.765C82.6782 32.255 81.0682 32.5 79.2015 32.5H66.7765ZM77.9765 27.32C78.6532 27.32 79.2365 27.2383 79.7265 27.075C80.2165 26.8883 80.6015 26.6083 80.8815 26.235C81.1848 25.8617 81.3365 25.395 81.3365 24.835C81.3365 23.995 81.0332 23.365 80.4265 22.945C79.8198 22.5017 79.0032 22.28 77.9765 22.28H73.4965V27.32H77.9765ZM77.9415 17.66C78.5248 17.66 79.0382 17.5783 79.4815 17.415C79.9248 17.2283 80.2632 16.9717 80.4965 16.645C80.7532 16.295 80.8815 15.875 80.8815 15.385C80.8815 14.6617 80.6248 14.1133 80.1115 13.74C79.5982 13.3667 78.8748 13.18 77.9415 13.18H73.4965V17.66H77.9415Z" fill="#F97561"/>
<path d="M43.4578 32.5V8H62.5678V13.39H50.2128V17.52H59.8028V22.525H50.2128V27.11H62.5678V32.5H43.4578Z" fill="#F97561"/>
<path d="M9.335 32.5L3 8H10.49L11.855 14.545C12.205 16.2483 12.415 18.2317 12.485 20.495C12.5783 22.735 12.6017 24.9983 12.555 27.285H14.865C14.8417 25.3483 14.8767 23.5867 14.97 22C15.0867 20.39 15.355 18.4067 15.775 16.05L17.77 8H25.855L27.885 16.015C28.305 18.115 28.5617 19.9933 28.655 21.65C28.7717 23.3067 28.83 25.185 28.83 27.285H31.105C31.0817 24.695 31.105 22.3617 31.175 20.285C31.245 18.185 31.4317 16.3183 31.735 14.685L33.17 8H40.205L34.15 32.5H26.065L23.825 23.365C23.475 21.7317 23.2533 20.075 23.16 18.395C23.0667 16.6917 23.0317 14.86 23.055 12.9H20.745C20.7683 14.8367 20.7217 16.6567 20.605 18.36C20.5117 20.04 20.29 21.7083 19.94 23.365L17.63 32.5H9.335Z" fill="#F97561"/>
</svg>
